# This file uses centimeters as units for non-parametric coordinates.

mtllib closedFlower.mtl
g default
v -0.000007 0.427839 0.031838
v -0.018042 0.348328 0.023877
v -0.031207 0.427845 0.009197
v -0.029209 0.348337 -0.010455
v -0.019313 0.427857 -0.027539
v -0.000039 0.348344 -0.031681
v 0.019275 0.427846 -0.027495
v 0.029182 0.348328 -0.010420
v 0.031175 0.427840 0.009190
v 0.018025 0.348324 0.023868
v -0.106048 0.189306 0.145123
v -0.205999 0.215616 0.066136
v 0.106082 0.189283 0.145071
v 0.000058 0.215578 0.215665
v 0.171702 0.189306 -0.056593
v 0.205993 0.215584 0.066092
v -0.000164 0.189400 -0.181636
v 0.127405 0.215624 -0.176191
v -0.171722 0.189360 -0.056797
v -0.127446 0.215696 -0.176485
v 0.000076 -0.000716 0.267426
v -0.156391 -0.054328 0.214490
v -0.255217 -0.000670 0.082169
v -0.253251 -0.054247 -0.083308
v -0.157894 -0.000570 -0.218424
v -0.000232 -0.054188 -0.267426
v 0.157851 -0.000660 -0.218059
v 0.253243 -0.054327 -0.083007
v 0.255217 -0.000709 0.082114
v 0.156464 -0.054361 0.214413
v 0.182700 -0.174335 0.058511
v 0.112998 -0.174335 -0.156378
v -0.113039 -0.174335 -0.156639
v -0.182710 -0.174335 0.058550
v 0.000049 -0.174335 0.191172
v -0.105617 -0.174335 0.144533
v 0.105655 -0.174335 0.144481
v 0.171010 -0.174335 -0.056367
v -0.000162 -0.174335 -0.180906
v -0.171026 -0.174335 -0.056571
v 0.059201 -0.289459 0.018313
v 0.036613 -0.289459 -0.051328
v -0.036642 -0.289459 -0.051413
v -0.059220 -0.289459 0.018325
v 0.000008 -0.289459 0.061306
v -0.082783 -0.427857 0.025999
v 0.000015 -0.427857 0.086082
v 0.082762 -0.427857 0.025982
v 0.051183 -0.427857 -0.071371
v -0.051219 -0.427857 -0.071489
vt 0.255552 0.082329
vt 0.255552 0.073987
vt 0.251667 0.073987
vt 0.251667 0.082329
vt 0.086205 0.260588
vt 0.086205 0.252246
vt 0.082320 0.252246
vt 0.082320 0.260588
vt 0.081749 0.260588
vt 0.081749 0.252246
vt 0.077863 0.252246
vt 0.077863 0.260588
vt 0.095118 0.260588
vt 0.095118 0.252246
vt 0.091233 0.252246
vt 0.091233 0.260588
vt 0.090662 0.260588
vt 0.090662 0.252246
vt 0.086776 0.252246
vt 0.086776 0.260588
vt 0.086205 0.269501
vt 0.086205 0.261159
vt 0.082320 0.261159
vt 0.082320 0.269501
vt 0.081749 0.269501
vt 0.081749 0.261159
vt 0.077863 0.261159
vt 0.077863 0.269501
vt 0.095118 0.269501
vt 0.095118 0.261159
vt 0.091233 0.261159
vt 0.091233 0.269501
vt 0.090662 0.269501
vt 0.090662 0.261159
vt 0.086776 0.261159
vt 0.086776 0.269501
vt 0.830908 0.500191
vt 0.830276 0.499361
vt 0.830909 0.498534
vt 0.831933 0.498850
vt 0.831933 0.499876
vt 0.273378 0.082900
vt 0.265036 0.082900
vt 0.265036 0.091242
vt 0.273378 0.091242
vt 0.264465 0.082900
vt 0.256123 0.082900
vt 0.256123 0.091242
vt 0.264465 0.091242
vt 0.273378 0.073987
vt 0.265036 0.073987
vt 0.265036 0.082329
vt 0.273378 0.082329
vt 0.264465 0.073987
vt 0.256123 0.073987
vt 0.256123 0.082329
vt 0.264465 0.082329
vt 0.255552 0.100726
vt 0.247210 0.100726
vt 0.247210 0.109068
vt 0.255552 0.109068
vt 0.246639 0.100726
vt 0.238297 0.100726
vt 0.238297 0.109068
vt 0.246639 0.109068
vt 0.255552 0.091813
vt 0.247210 0.091813
vt 0.247210 0.100155
vt 0.255552 0.100155
vt 0.246639 0.091813
vt 0.238297 0.091813
vt 0.238297 0.100155
vt 0.246639 0.100155
vt 0.273378 0.100726
vt 0.265036 0.100726
vt 0.265036 0.109068
vt 0.273378 0.109068
vt 0.068379 0.260588
vt 0.068379 0.252246
vt 0.064494 0.252246
vt 0.064494 0.260588
vt 0.264465 0.100726
vt 0.256123 0.100726
vt 0.256123 0.109068
vt 0.264465 0.109068
vt 0.273378 0.091813
vt 0.265036 0.091813
vt 0.265036 0.100155
vt 0.273378 0.100155
vt 0.264465 0.091813
vt 0.256123 0.091813
vt 0.256123 0.100155
vt 0.264465 0.100155
vt 0.255552 0.047248
vt 0.247210 0.047248
vt 0.247210 0.055590
vt 0.255552 0.055590
vt 0.246639 0.047248
vt 0.238297 0.047248
vt 0.238297 0.055590
vt 0.246639 0.055590
vt 0.255552 0.038335
vt 0.247210 0.038335
vt 0.247210 0.046677
vt 0.255552 0.046677
vt 0.246639 0.038335
vt 0.238297 0.038335
vt 0.238297 0.046677
vt 0.246639 0.046677
vt 0.273378 0.047248
vt 0.265036 0.047248
vt 0.265036 0.055590
vt 0.273378 0.055590
vt 0.264465 0.047248
vt 0.256123 0.047248
vt 0.256123 0.055590
vt 0.264465 0.055590
vt 0.273378 0.038335
vt 0.265036 0.038335
vt 0.265036 0.046677
vt 0.273378 0.046677
vt 0.264465 0.038335
vt 0.256123 0.038335
vt 0.256123 0.046677
vt 0.264465 0.046677
vt 0.237033 0.760153
vt 0.240633 0.752096
vt 0.240633 0.760153
vt 0.239955 0.077872
vt 0.239955 0.074272
vt 0.238583 0.077872
vt 0.239669 0.073987
vt 0.238297 0.073987
vt 0.238297 0.077587
vt 0.246639 0.074272
vt 0.246639 0.077872
vt 0.243039 0.077872
vt 0.240811 0.077872
vt 0.242183 0.074272
vt 0.242183 0.077872
vt 0.240526 0.077587
vt 0.241897 0.073987
vt 0.240526 0.073987
vt 0.271828 0.943440
vt 0.267943 0.943440
vt 0.267943 0.947325
vt 0.271828 0.947325
vt 0.062373 0.938983
vt 0.058487 0.938983
vt 0.058487 0.947325
vt 0.062373 0.947325
vt 0.075742 0.938983
vt 0.071857 0.938983
vt 0.071857 0.947325
vt 0.075742 0.947325
vt 0.071286 0.938983
vt 0.067400 0.938983
vt 0.067400 0.947325
vt 0.071286 0.947325
vt 0.066829 0.947896
vt 0.062944 0.947896
vt 0.062944 0.956238
vt 0.066829 0.956238
vt 0.254002 0.758569
vt 0.248840 0.760153
vt 0.245660 0.755976
vt 0.248849 0.751811
vt 0.254002 0.753406
vt 0.267372 0.943440
vt 0.263486 0.943440
vt 0.263486 0.947325
vt 0.267372 0.947325
vt 0.276285 0.943440
vt 0.272399 0.943440
vt 0.272399 0.947325
vt 0.276285 0.947325
vt 0.245089 0.765180
vt 0.241204 0.765180
vt 0.241204 0.769066
vt 0.245089 0.769066
vt 0.240633 0.765180
vt 0.236747 0.765180
vt 0.236747 0.769066
vt 0.240633 0.769066
vt 0.241204 0.760724
vt 0.244804 0.760724
vt 0.241204 0.764324
vt 0.245089 0.760153
vt 0.241489 0.760153
vt 0.245089 0.752096
vt 0.236747 0.751811
vt 0.240347 0.751811
vt 0.236747 0.759867
vt 0.241204 0.751811
vt 0.244804 0.751811
vt 0.241204 0.759867
vt 0.249546 0.751240
vt 0.249546 0.742898
vt 0.245660 0.742898
vt 0.245660 0.751240
vn 0.727710 0.530208 0.435106
vn 0.727710 0.530208 0.435106
vn 0.727710 0.530208 0.435106
vn 0.727710 0.530208 0.435106
vn -0.844398 0.530299 0.076000
vn -0.844398 0.530299 0.076000
vn -0.844398 0.530299 0.076000
vn -0.844398 0.530299 0.076000
vn 0.333498 0.530397 -0.779396
vn 0.333498 0.530397 -0.779396
vn 0.333498 0.530397 -0.779396
vn 0.333498 0.530397 -0.779396
vn -0.188493 0.530180 0.826668
vn -0.188493 0.530180 0.826668
vn -0.188493 0.530180 0.826668
vn -0.188493 0.530180 0.826668
vn -0.331199 0.531099 -0.779898
vn -0.331199 0.531099 -0.779898
vn -0.331199 0.531099 -0.779898
vn -0.331199 0.531099 -0.779898
vn 0.844411 0.530307 0.075801
vn 0.844411 0.530307 0.075801
vn 0.844411 0.530307 0.075801
vn 0.844411 0.530307 0.075801
vn -0.727332 0.530223 0.435719
vn -0.727332 0.530223 0.435719
vn -0.727332 0.530223 0.435719
vn -0.727332 0.530223 0.435719
vn 0.639125 0.530221 -0.557122
vn 0.639125 0.530221 -0.557122
vn 0.639125 0.530221 -0.557122
vn 0.639125 0.530221 -0.557122
vn 0.188696 0.530088 0.826681
vn 0.188696 0.530088 0.826681
vn 0.188696 0.530088 0.826681
vn 0.188696 0.530088 0.826681
vn 0.000100 1.000000 0.000300
vn 0.000100 1.000000 0.000300
vn 0.000100 1.000000 0.000300
vn 0.000100 1.000000 0.000300
vn 0.000100 1.000000 0.000300
vn 0.476711 0.272307 0.835820
vn 0.476711 0.272307 0.835820
vn 0.476711 0.272307 0.835820
vn 0.476711 0.272307 0.835820
vn -0.942469 0.272391 -0.193794
vn -0.942469 0.272391 -0.193794
vn -0.942469 0.272391 -0.193794
vn -0.942469 0.272391 -0.193794
vn 0.647422 0.272309 0.711824
vn 0.647422 0.272309 0.711824
vn 0.647422 0.272309 0.711824
vn 0.647422 0.272309 0.711824
vn 0.942392 0.272298 -0.194298
vn 0.942392 0.272298 -0.194298
vn 0.942392 0.272298 -0.194298
vn 0.942392 0.272298 -0.194298
vn -0.476088 0.272293 0.836180
vn -0.476088 0.272293 0.836180
vn -0.476088 0.272293 0.836180
vn -0.476088 0.272293 0.836180
vn 0.877122 0.272307 -0.395610
vn 0.877122 0.272307 -0.395610
vn 0.877122 0.272307 -0.395610
vn 0.877122 0.272307 -0.395610
vn 0.107404 0.272511 -0.956139
vn 0.107404 0.272511 -0.956139
vn 0.107404 0.272511 -0.956139
vn 0.107404 0.272511 -0.956139
vn -0.647271 0.272288 0.711968
vn -0.647271 0.272288 0.711968
vn -0.647271 0.272288 0.711968
vn -0.647271 0.272288 0.711968
vn -0.105305 0.272612 -0.956344
vn -0.105305 0.272612 -0.956344
vn -0.105305 0.272612 -0.956344
vn -0.105305 0.272612 -0.956344
vn -0.639418 0.530715 -0.556315
vn -0.639418 0.530715 -0.556315
vn -0.639418 0.530715 -0.556315
vn -0.639418 0.530715 -0.556315
vn -0.316093 -0.465490 -0.826683
vn -0.316093 -0.465490 -0.826683
vn -0.316093 -0.465490 -0.826683
vn -0.316093 -0.465490 -0.826683
vn -0.741616 -0.465310 0.483211
vn -0.741616 -0.465310 0.483211
vn -0.741616 -0.465310 0.483211
vn -0.741616 -0.465310 0.483211
vn 0.317000 -0.465200 -0.826499
vn 0.317000 -0.465200 -0.826499
vn 0.317000 -0.465200 -0.826499
vn 0.317000 -0.465200 -0.826499
vn 0.688900 -0.465300 -0.555800
vn 0.688900 -0.465300 -0.555800
vn 0.688900 -0.465300 -0.555800
vn 0.688900 -0.465300 -0.555800
vn -0.229516 -0.465333 0.854861
vn -0.229516 -0.465333 0.854861
vn -0.229516 -0.465333 0.854861
vn -0.229516 -0.465333 0.854861
vn 0.883903 -0.465402 0.046000
vn 0.883903 -0.465402 0.046000
vn 0.883903 -0.465402 0.046000
vn 0.883903 -0.465402 0.046000
vn 0.741698 -0.465399 0.482999
vn 0.741698 -0.465399 0.482999
vn 0.741698 -0.465399 0.482999
vn 0.741698 -0.465399 0.482999
vn -0.884016 -0.465208 0.045801
vn -0.884016 -0.465208 0.045801
vn -0.884016 -0.465208 0.045801
vn -0.884016 -0.465208 0.045801
vn 0.229999 -0.465398 0.854696
vn 0.229999 -0.465398 0.854696
vn 0.229999 -0.465398 0.854696
vn 0.229999 -0.465398 0.854696
vn -0.689088 -0.465392 -0.555490
vn -0.689088 -0.465392 -0.555490
vn -0.689088 -0.465392 -0.555490
vn -0.689088 -0.465392 -0.555490
vn -0.877282 0.272395 -0.395192
vn -0.877282 0.272395 -0.395192
vn -0.877282 0.272395 -0.395192
vn -0.877282 0.272395 -0.395192
vn -0.146199 -0.718494 -0.679994
vn -0.146199 -0.718494 -0.679994
vn -0.146199 -0.718494 -0.679994
vn 0.585425 0.100004 0.804535
vn 0.585425 0.100004 0.804535
vn 0.585425 0.100004 0.804535
vn 0.946231 0.099803 -0.307710
vn 0.946231 0.099803 -0.307710
vn 0.946231 0.099803 -0.307710
vn -0.585324 0.099804 0.804633
vn -0.585324 0.099804 0.804633
vn -0.585324 0.099804 0.804633
vn -0.946192 0.099599 -0.307897
vn -0.946192 0.099599 -0.307897
vn -0.946192 0.099599 -0.307897
vn -0.000200 0.099702 -0.995017
vn -0.000200 0.099702 -0.995017
vn -0.000200 0.099702 -0.995017
vn -0.941552 0.143408 -0.304817
vn -0.941552 0.143408 -0.304817
vn -0.941552 0.143408 -0.304817
vn -0.941552 0.143408 -0.304817
vn -0.615718 -0.731822 -0.292109
vn -0.615718 -0.731822 -0.292109
vn -0.615718 -0.731822 -0.292109
vn -0.615718 -0.731822 -0.292109
vn 0.325898 -0.731596 0.598797
vn 0.325898 -0.731596 0.598797
vn 0.325898 -0.731596 0.598797
vn 0.325898 -0.731596 0.598797
vn 0.670182 -0.731681 -0.124497
vn 0.670182 -0.731681 -0.124497
vn 0.670182 -0.731681 -0.124497
vn 0.670182 -0.731681 -0.124497
vn -0.468477 -0.731663 0.495175
vn -0.468477 -0.731663 0.495175
vn -0.468477 -0.731663 0.495175
vn -0.468477 -0.731663 0.495175
vn 0.000000 -1.000000 0.000000
vn 0.000000 -1.000000 0.000000
vn 0.000000 -1.000000 0.000000
vn 0.000000 -1.000000 0.000000
vn 0.000000 -1.000000 0.000000
vn 0.941382 0.143297 -0.305394
vn 0.941382 0.143297 -0.305394
vn 0.941382 0.143297 -0.305394
vn 0.941382 0.143297 -0.305394
vn -0.581278 0.143395 0.800970
vn -0.581278 0.143395 0.800970
vn -0.581278 0.143395 0.800970
vn -0.581278 0.143395 0.800970
vn 0.001100 0.143395 -0.989665
vn 0.001100 0.143395 -0.989665
vn 0.001100 0.143395 -0.989665
vn 0.001100 0.143395 -0.989665
vn 0.581617 0.143404 0.800723
vn 0.581617 0.143404 0.800723
vn 0.581617 0.143404 0.800723
vn 0.581617 0.143404 0.800723
vn -0.692391 -0.718090 -0.070299
vn -0.692391 -0.718090 -0.070299
vn -0.692391 -0.718090 -0.070299
vn -0.280998 -0.718094 0.636695
vn -0.280998 -0.718094 0.636695
vn -0.280998 -0.718094 0.636695
vn 0.518308 -0.718111 0.464407
vn 0.518308 -0.718111 0.464407
vn 0.518308 -0.718111 0.464407
vn 0.601996 -0.718096 -0.349198
vn 0.601996 -0.718096 -0.349198
vn 0.601996 -0.718096 -0.349198
vn 0.089197 -0.731875 -0.675577
vn 0.089197 -0.731875 -0.675577
vn 0.089197 -0.731875 -0.675577
vn 0.089197 -0.731875 -0.675577
s off
g polySurface1
usemtl water_lilies_color_palette
f 13/1/1 10/2/2 1/3/3 14/4/4
f 19/5/5 4/6/6 5/7/7 20/8/8
f 20/9/9 5/10/10 6/11/11 17/12/12
f 11/13/13 2/14/14 3/15/15 12/16/16
f 17/17/17 6/18/18 7/19/19 18/20/20
f 18/21/21 7/22/22 8/23/23 15/24/24
f 14/25/25 1/26/26 2/27/27 11/28/28
f 15/29/29 8/30/30 9/31/31 16/32/32
f 16/33/33 9/34/34 10/35/35 13/36/36
f 4/37/37 2/38/38 10/39/39 8/40/40 6/41/41
f 30/42/42 13/43/43 14/44/44 21/45/45
f 23/46/46 12/47/47 19/48/48 24/49/49
f 29/50/50 16/51/51 13/52/52 30/53/53
f 28/54/54 15/55/55 16/56/56 29/57/57
f 21/58/58 14/59/59 11/60/60 22/61/61
f 27/62/62 18/63/63 15/64/64 28/65/65
f 26/66/66 17/67/67 18/68/68 27/69/69
f 22/70/70 11/71/71 12/72/72 23/73/73
f 25/74/74 20/75/75 17/76/76 26/77/77
f 12/78/78 3/79/79 4/80/80 19/81/81
f 33/82/82 25/83/83 26/84/84 39/85/85
f 36/86/86 22/87/87 23/88/88 34/89/89
f 39/90/90 26/91/91 27/92/92 32/93/93
f 32/94/94 27/95/95 28/96/96 38/97/97
f 35/98/98 21/99/99 22/100/100 36/101/101
f 38/102/102 28/103/103 29/104/104 31/105/105
f 31/106/106 29/107/107 30/108/108 37/109/109
f 34/110/110 23/111/111 24/112/112 40/113/113
f 37/114/114 30/115/115 21/116/116 35/117/117
f 40/118/118 24/119/119 25/120/120 33/121/121
f 24/122/122 19/123/123 20/124/124 25/125/125
f 39/126/126 43/127/127 33/128/128
f 6/129/129 5/130/130 4/131/131
f 2/132/132 4/133/133 3/134/134
f 7/135/135 6/136/136 8/137/137
f 10/138/138 9/139/139 8/140/140
f 1/141/141 10/142/142 2/143/143
f 43/144/144 50/145/145 46/146/146 44/147/147
f 40/148/148 33/149/149 43/150/150 44/151/151
f 37/152/152 35/153/153 45/154/154 41/155/155
f 38/156/156 31/157/157 41/158/158 42/159/159
f 36/160/160 34/161/161 44/162/162 45/163/163
f 50/164/164 49/165/165 48/166/166 47/167/167 46/168/168
f 41/169/169 48/170/170 49/171/171 42/172/172
f 44/173/173 46/174/174 47/175/175 45/176/176
f 42/177/177 49/178/178 50/179/179 43/180/180
f 45/181/181 47/182/182 48/183/183 41/184/184
f 34/185/185 40/186/186 44/187/187
f 35/188/188 36/189/189 45/190/190
f 31/191/191 37/192/192 41/193/193
f 32/194/194 38/195/195 42/196/196
f 32/197/197 42/198/198 43/199/199 39/200/200
