# This file uses centimeters as units for non-parametric coordinates.

mtllib lilyPad.mtl
g default
v -0.649303 0.052194 -0.501936
v 0.649583 0.052194 -0.501936
v 0.000141 0.052194 0.587131
v 0.000141 0.063171 -0.851704
v -0.274325 0.063171 0.851704
v -0.917453 0.063171 0.170272
v -0.782137 0.052194 0.726545
v 0.917453 0.063171 0.168929
v 0.273322 0.063171 0.851704
v 0.781960 0.052194 0.726545
v -0.649303 -0.063171 -0.501936
v 0.649583 -0.063171 -0.501936
v 0.000141 -0.063171 0.587131
v 0.000141 -0.063171 -0.851704
v -0.274325 -0.063171 0.851704
v -0.917453 -0.063171 0.170272
v -0.782137 -0.063171 0.726545
v 0.917453 -0.063171 0.168929
v 0.273322 -0.063171 0.851704
v 0.781960 -0.063171 0.726545
v 0.000130 0.039920 -0.818237
v -0.623152 0.039920 -0.481533
v 0.626080 0.039920 -0.486871
v -0.886178 0.039920 0.171595
v -0.753347 0.039920 0.700146
v -0.281520 0.039920 0.817175
v 0.000130 0.039920 0.544897
v 0.280564 0.039920 0.818720
v 0.759352 0.039920 0.703235
v 0.887865 0.039920 0.172721
vt 0.024385 0.402771
vt 0.031962 0.374438
vt 0.056118 0.357752
vt 0.079722 0.357678
vt 0.089728 0.376080
vt 0.081850 0.389113
vt 0.095118 0.397172
vt 0.095118 0.417918
vt 0.074234 0.428411
vt 0.044747 0.424464
vt 0.284519 0.535366
vt 0.284519 0.500286
vt 0.282862 0.500286
vt 0.282862 0.535366
vt 0.063323 0.443119
vt 0.077147 0.434571
vt 0.095118 0.444181
vt 0.095118 0.467500
vt 0.078313 0.492252
vt 0.050159 0.499714
vt 0.028564 0.479466
vt 0.024385 0.449704
vt 0.034785 0.429095
vt 0.054724 0.428982
vt 0.238297 0.611127
vt 0.255552 0.611127
vt 0.255552 0.609470
vt 0.238297 0.609470
vt 0.166993 0.615583
vt 0.202074 0.615583
vt 0.202074 0.611698
vt 0.166993 0.611698
vt 0.282291 0.535366
vt 0.282291 0.500286
vt 0.278406 0.500286
vt 0.278406 0.535366
vt 0.131341 0.615583
vt 0.166422 0.615583
vt 0.166422 0.611698
vt 0.131341 0.611698
vt 0.282291 0.499714
vt 0.282291 0.464634
vt 0.278406 0.464634
vt 0.278406 0.499714
vt 0.265036 0.611127
vt 0.282291 0.611127
vt 0.282291 0.607241
vt 0.265036 0.607241
vt 0.264465 0.571018
vt 0.264465 0.553763
vt 0.260580 0.553763
vt 0.260580 0.571018
vt 0.260009 0.571018
vt 0.260009 0.553763
vt 0.256123 0.553763
vt 0.256123 0.571018
vt 0.273378 0.571018
vt 0.273378 0.553763
vt 0.269493 0.553763
vt 0.269493 0.571018
vt 0.282291 0.464063
vt 0.282291 0.428982
vt 0.278406 0.428982
vt 0.278406 0.464063
vt 0.095689 0.615583
vt 0.130770 0.615583
vt 0.130770 0.611698
vt 0.095689 0.611698
vt 0.238297 0.608899
vt 0.255552 0.608899
vt 0.255552 0.607241
vt 0.238297 0.607241
vt 0.284519 0.499714
vt 0.284519 0.464634
vt 0.282862 0.464634
vt 0.282862 0.499714
vt 0.238297 0.617812
vt 0.273378 0.617812
vt 0.273378 0.616154
vt 0.238297 0.616154
vt 0.238297 0.615583
vt 0.255552 0.615583
vt 0.255552 0.613926
vt 0.238297 0.613926
vt 0.238297 0.613355
vt 0.255552 0.613355
vt 0.255552 0.611698
vt 0.238297 0.611698
vt 0.284519 0.464063
vt 0.284519 0.428982
vt 0.282862 0.428982
vt 0.282862 0.464063
vt 0.072836 0.642322
vt 0.072836 0.625067
vt 0.071179 0.625067
vt 0.071179 0.642322
vt 0.070608 0.642322
vt 0.070608 0.625067
vt 0.068950 0.625067
vt 0.068950 0.642322
vn 0.000000 -1.000000 0.000000
vn 0.000000 -1.000000 0.000000
vn 0.000000 -1.000000 0.000000
vn 0.000000 -1.000000 0.000000
vn 0.000000 -1.000000 0.000000
vn 0.000000 -1.000000 0.000000
vn 0.000000 -1.000000 0.000000
vn 0.000000 -1.000000 0.000000
vn 0.000000 -1.000000 0.000000
vn 0.000000 -1.000000 0.000000
vn 0.467284 0.865570 0.180094
vn 0.467284 0.865570 0.180094
vn 0.467284 0.865570 0.180094
vn 0.467284 0.865570 0.180094
vn 0.000000 1.000000 0.000000
vn 0.000000 1.000000 0.000000
vn 0.000000 1.000000 0.000000
vn 0.000000 1.000000 0.000000
vn 0.000000 1.000000 0.000000
vn 0.000000 1.000000 0.000000
vn 0.000000 1.000000 0.000000
vn 0.000000 1.000000 0.000000
vn 0.000000 1.000000 0.000000
vn 0.000000 1.000000 0.000000
vn -0.338920 0.865551 -0.368722
vn -0.338920 0.865551 -0.368722
vn -0.338920 0.865551 -0.368722
vn -0.338920 0.865551 -0.368722
vn -0.474207 0.000000 -0.880413
vn -0.474207 0.000000 -0.880413
vn -0.474207 0.000000 -0.880413
vn -0.474207 0.000000 -0.880413
vn 0.474207 0.000000 -0.880413
vn 0.474207 0.000000 -0.880413
vn 0.474207 0.000000 -0.880413
vn 0.474207 0.000000 -0.880413
vn -0.928828 0.000000 -0.370511
vn -0.928828 0.000000 -0.370511
vn -0.928828 0.000000 -0.370511
vn -0.928828 0.000000 -0.370511
vn -0.971658 0.000000 0.236390
vn -0.971658 0.000000 0.236390
vn -0.971658 0.000000 0.236390
vn -0.971658 0.000000 0.236390
vn -0.239311 0.000000 0.970943
vn -0.239311 0.000000 0.970943
vn -0.239311 0.000000 0.970943
vn -0.239311 0.000000 0.970943
vn 0.693987 0.000000 0.719987
vn 0.693987 0.000000 0.719987
vn 0.693987 0.000000 0.719987
vn 0.693987 0.000000 0.719987
vn -0.695716 0.000000 0.718317
vn -0.695716 0.000000 0.718317
vn -0.695716 0.000000 0.718317
vn -0.695716 0.000000 0.718317
vn 0.238910 0.000000 0.971042
vn 0.238910 0.000000 0.971042
vn 0.238910 0.000000 0.971042
vn 0.238910 0.000000 0.971042
vn 0.971727 0.000000 0.236107
vn 0.971727 0.000000 0.236107
vn 0.971727 0.000000 0.236107
vn 0.971727 0.000000 0.236107
vn 0.928711 0.000000 -0.370804
vn 0.928711 0.000000 -0.370804
vn 0.928711 0.000000 -0.370804
vn 0.928711 0.000000 -0.370804
vn -0.527692 0.840988 -0.119498
vn -0.527692 0.840988 -0.119498
vn -0.527692 0.840988 -0.119498
vn -0.527692 0.840988 -0.119498
vn -0.498006 0.845810 0.191302
vn -0.498006 0.845810 0.191302
vn -0.498006 0.845810 0.191302
vn -0.498006 0.845810 0.191302
vn 0.236508 0.859928 0.452315
vn 0.236508 0.859928 0.452315
vn 0.236508 0.859928 0.452315
vn 0.236508 0.859928 0.452315
vn 0.345992 0.860780 -0.373291
vn 0.345992 0.860780 -0.373291
vn 0.345992 0.860780 -0.373291
vn 0.345992 0.860780 -0.373291
vn 0.472304 0.874807 -0.107901
vn 0.472304 0.874807 -0.107901
vn 0.472304 0.874807 -0.107901
vn 0.472304 0.874807 -0.107901
vn -0.253603 0.835011 0.488306
vn -0.253603 0.835011 0.488306
vn -0.253603 0.835011 0.488306
vn -0.253603 0.835011 0.488306
vn -0.114203 0.853923 -0.507714
vn -0.114203 0.853923 -0.507714
vn -0.114203 0.853923 -0.507714
vn -0.114203 0.853923 -0.507714
vn 0.106899 0.874989 -0.472194
vn 0.106899 0.874989 -0.472194
vn 0.106899 0.874989 -0.472194
vn 0.106899 0.874989 -0.472194
s off
g polySurface2
usemtl water_lilies_color_palette
f 14/1/1 12/2/2 18/3/3 20/4/4 19/5/5 13/6/6 15/7/7 17/8/8 16/9/9 11/10/10
f 1/11/11 6/12/12 24/13/13 22/14/14
f 27/15/15 28/16/16 29/17/17 30/18/18 23/19/19 21/20/20 22/21/21 24/22/22 25/23/23 26/24/24
f 5/25/25 3/26/26 27/27/27 26/28/28
f 1/29/29 4/30/30 14/31/31 11/32/32
f 4/33/33 2/34/34 12/35/35 14/36/36
f 6/37/37 1/38/38 11/39/39 16/40/40
f 7/41/41 6/42/42 16/43/43 17/44/44
f 5/45/45 7/46/46 17/47/47 15/48/48
f 3/49/49 5/50/50 15/51/51 13/52/52
f 9/53/53 3/54/54 13/55/55 19/56/56
f 10/57/57 9/58/58 19/59/59 20/60/60
f 8/61/61 10/62/62 20/63/63 18/64/64
f 2/65/65 8/66/66 18/67/67 12/68/68
f 10/69/69 8/70/70 30/71/71 29/72/72
f 8/73/73 2/74/74 23/75/75 30/76/76
f 4/77/77 1/78/78 22/79/79 21/80/80
f 3/81/81 9/82/82 28/83/83 27/84/84
f 6/85/85 7/86/86 25/87/87 24/88/88
f 2/89/89 4/90/90 21/91/91 23/92/92
f 9/93/93 10/94/94 29/95/95 28/96/96
f 7/97/97 5/98/98 26/99/99 25/100/100
