# This file uses centimeters as units for non-parametric coordinates.

mtllib table_uvs.mtl
g default
v 1.219635 0.231208 -0.561806
v 1.219635 0.017644 -0.561806
v 1.219635 0.231208 0.561806
v 1.219635 0.017644 0.561806
v -1.925642 0.231208 -0.561806
v -1.944697 0.052086 -0.580860
v -1.925642 0.231208 0.561806
v -1.944697 0.052086 0.580860
v 0.941553 0.052086 -0.588752
v -1.647560 0.052086 -0.588752
v 0.941553 0.196766 0.588752
v -1.647560 0.196766 0.588752
v -1.647560 0.052086 0.588752
v 0.941553 0.052086 0.588752
v -1.647560 0.196766 -0.588752
v 0.941553 0.196766 -0.588752
v -1.952589 0.052086 -0.364871
v -1.952589 0.052086 0.364871
v 1.246582 0.196766 -0.364871
v 1.246582 0.196766 0.364871
v -1.952589 0.196766 0.364871
v -1.952589 0.196766 -0.364871
v 1.246582 0.052086 0.364871
v 1.246582 0.052086 -0.364871
v -1.647560 0.017644 -0.364871
v -1.647560 0.017644 0.364871
v 0.941553 0.017644 -0.364871
v 0.941553 0.017644 0.364871
v 0.941553 0.231208 -0.364871
v 0.941553 0.231208 0.364871
v -1.647560 0.231208 -0.364871
v -1.647560 0.231208 0.364871
v -1.882333 -0.757247 0.395542
v -1.882333 -0.757247 0.531135
v -1.690869 -0.757247 -0.531135
v -1.882333 -0.757247 -0.531135
v 0.984862 -0.757247 0.531135
v 1.176326 -0.757247 0.531135
v 1.176326 -0.757247 -0.395542
v 1.176326 -0.757247 -0.531135
v 0.984862 -0.757247 -0.531135
v -1.690869 -0.757247 0.531135
v -1.690869 -0.757247 0.395542
v 0.984862 -0.757247 0.395542
v -1.882333 -0.757247 -0.395542
v 1.176326 -0.757247 0.395542
v -1.690869 -0.757247 -0.395542
v 0.984862 -0.757247 -0.395542
v -1.925642 0.017644 0.364871
v -1.925642 0.017644 0.561806
v -1.647560 0.017644 -0.561806
v -1.925642 0.017644 -0.561806
v -1.647560 0.231208 0.561806
v -1.944697 0.196766 0.580860
v 1.219635 0.231208 0.364871
v 1.238690 0.196766 0.580860
v 0.941553 0.017644 0.561806
v 1.238690 0.052086 0.580860
v -1.925642 0.231208 -0.364871
v -1.944697 0.196766 -0.580860
v 0.941553 0.231208 -0.561806
v 1.238690 0.196766 -0.580860
v 1.219635 0.017644 -0.364871
v 1.238690 0.052086 -0.580860
v 0.941553 0.017644 -0.561806
v 0.941553 0.231208 0.561806
v -1.647560 0.017644 0.561806
v -1.647560 0.231208 -0.561806
v -1.925642 0.017644 -0.364871
v 1.219635 0.231208 -0.364871
v -1.925642 0.231208 0.364871
v 1.219635 0.017644 0.364871
vt 0.828069 0.220008
vt 0.861431 0.220008
vt 0.861431 0.269813
vt 0.828069 0.269813
vt 0.828069 0.051735
vt 0.861431 0.051735
vt 0.869373 0.220008
vt 0.869373 0.265419
vt 0.820127 0.265419
vt 0.820127 0.220008
vt 0.828069 0.001930
vt 0.861431 0.001930
vt 0.869373 0.051735
vt 0.820127 0.051735
vt 0.641443 0.258347
vt 0.641443 0.227080
vt 0.869373 0.006323
vt 0.820127 0.006323
vt 0.641443 0.044663
vt 0.641443 0.013396
vt 0.948762 0.491882
vt 0.948762 0.537294
vt 0.770078 0.530221
vt 0.770078 0.498955
vt 0.956704 0.491882
vt 0.956704 0.541687
vt 0.990066 0.491882
vt 0.990066 0.541687
vt 0.956704 0.323610
vt 0.948762 0.323610
vt 0.990066 0.323610
vt 0.998008 0.491882
vt 0.998008 0.537294
vt 0.956704 0.273804
vt 0.948762 0.278198
vt 0.990066 0.273804
vt 0.998008 0.323610
vt 0.770078 0.316537
vt 0.770078 0.285271
vt 0.998008 0.278198
vt 0.482908 0.918668
vt 0.437496 0.918668
vt 0.444569 0.739984
vt 0.475835 0.739984
vt 0.361102 0.918668
vt 0.315691 0.918668
vt 0.322763 0.739984
vt 0.354030 0.739984
vt 0.239297 0.918668
vt 0.193885 0.918668
vt 0.200957 0.739984
vt 0.232224 0.739984
vt 0.117491 0.918668
vt 0.072079 0.918668
vt 0.079152 0.739984
vt 0.110418 0.739984
vt 0.053617 0.667476
vt 0.053617 0.731599
vt 0.008206 0.731599
vt 0.008206 0.667476
vt 0.221890 0.667476
vt 0.221890 0.731599
vt 0.003812 0.735993
vt 0.001992 0.667476
vt 0.053617 0.070447
vt 0.008206 0.070447
vt 0.267301 0.667476
vt 0.267301 0.731599
vt 0.221890 0.070447
vt 0.001992 0.070447
vt 0.053617 0.006324
vt 0.008206 0.006324
vt 0.273515 0.667476
vt 0.271695 0.735993
vt 0.267301 0.070447
vt 0.221890 0.006324
vt 0.003812 0.001930
vt 0.273515 0.070447
vt 0.267301 0.006324
vt 0.271695 0.001930
vt 0.582641 0.667476
vt 0.582641 0.070447
vt 0.628052 0.070447
vt 0.628052 0.667476
vt 0.414368 0.667476
vt 0.414368 0.070447
vt 0.634266 0.070447
vt 0.634266 0.667476
vt 0.368957 0.667476
vt 0.368957 0.070447
vt 0.414368 0.006324
vt 0.582641 0.006324
vt 0.414368 0.731599
vt 0.582641 0.731599
vt 0.632446 0.735993
vt 0.628052 0.731599
vt 0.632446 0.001930
vt 0.628052 0.006324
vt 0.362743 0.667476
vt 0.362743 0.070447
vt 0.364563 0.001930
vt 0.368957 0.006324
vt 0.364563 0.735993
vt 0.368957 0.731599
vt 0.072349 0.966809
vt 0.072349 0.922659
vt 0.103616 0.922659
vt 0.103616 0.966809
vt 0.111328 0.966809
vt 0.111328 0.922659
vt 0.142595 0.922659
vt 0.142595 0.966809
vt 0.150307 0.966809
vt 0.150307 0.922659
vt 0.181574 0.922659
vt 0.181574 0.966809
vt 0.189286 0.966809
vt 0.189286 0.922659
vt 0.220553 0.922659
vt 0.220553 0.966809
vt 0.280887 0.667476
vt 0.314249 0.667476
vt 0.314249 0.735993
vt 0.280887 0.735993
vt 0.280887 0.070447
vt 0.314249 0.070447
vt 0.280887 0.001930
vt 0.314249 0.001930
vt 0.355177 0.070447
vt 0.321815 0.070447
vt 0.321815 0.001930
vt 0.355177 0.001930
vt 0.355177 0.667475
vt 0.321815 0.667475
vt 0.355177 0.735993
vt 0.321815 0.735993
vt 0.699820 0.273804
vt 0.763943 0.273804
vt 0.753956 0.452488
vt 0.709806 0.452488
vt 0.693684 0.918668
vt 0.629561 0.918668
vt 0.639548 0.739984
vt 0.683698 0.739984
vt 0.559302 0.739984
vt 0.623425 0.739984
vt 0.613439 0.918668
vt 0.569289 0.918668
vt 0.553167 0.918668
vt 0.489043 0.918668
vt 0.499030 0.739984
vt 0.543180 0.739984
vt 0.367238 0.739984
vt 0.431361 0.739984
vt 0.421374 0.918668
vt 0.377224 0.918668
vt 0.309555 0.918668
vt 0.245432 0.918668
vt 0.255419 0.739984
vt 0.299569 0.739984
vt 0.123626 0.739984
vt 0.187750 0.739984
vt 0.177763 0.918668
vt 0.133613 0.918668
vt 0.066115 0.918668
vt 0.001992 0.918668
vt 0.011979 0.739984
vt 0.056129 0.739984
vn 0.000000 1.000000 0.000000
vn 0.000000 1.000000 0.000000
vn 0.000000 1.000000 0.000000
vn 0.000000 1.000000 0.000000
vn -0.026601 0.000000 0.999646
vn -0.026601 0.000000 0.999646
vn -0.026601 0.000000 0.999646
vn -0.026601 0.000000 0.999646
vn -0.999334 0.000000 -0.036501
vn -0.999334 0.000000 -0.036501
vn -0.999334 0.000000 -0.036501
vn -0.999334 0.000000 -0.036501
vn 0.998442 -0.055802 0.000000
vn 0.998442 -0.055802 0.000000
vn 0.998442 -0.055802 0.000000
vn 0.998442 -0.055802 0.000000
vn 0.999334 0.000000 0.036501
vn 0.999334 0.000000 0.036501
vn 0.999334 0.000000 0.036501
vn 0.999334 0.000000 0.036501
vn 0.026601 0.000000 -0.999646
vn 0.026601 0.000000 -0.999646
vn 0.026601 0.000000 -0.999646
vn 0.026601 0.000000 -0.999646
vn -0.026601 0.000000 -0.999646
vn -0.026601 0.000000 -0.999646
vn -0.026601 0.000000 -0.999646
vn -0.026601 0.000000 -0.999646
vn 0.000000 0.000000 -1.000000
vn 0.000000 0.000000 -1.000000
vn 0.000000 0.000000 -1.000000
vn 0.000000 0.000000 -1.000000
vn 0.998442 -0.055802 0.000000
vn 0.998442 -0.055802 0.000000
vn 0.998442 -0.055802 0.000000
vn 0.998442 -0.055802 0.000000
vn 0.000000 -1.000000 0.000000
vn 0.000000 -1.000000 0.000000
vn 0.000000 -1.000000 0.000000
vn 0.000000 -1.000000 0.000000
vn 0.026601 0.000000 0.999646
vn 0.026601 0.000000 0.999646
vn 0.026601 0.000000 0.999646
vn 0.026601 0.000000 0.999646
vn 0.000000 0.000000 1.000000
vn 0.000000 0.000000 1.000000
vn 0.000000 0.000000 1.000000
vn 0.000000 0.000000 1.000000
vn 0.000000 1.000000 0.000000
vn 0.000000 1.000000 0.000000
vn 0.000000 1.000000 0.000000
vn 0.000000 1.000000 0.000000
vn 0.000000 1.000000 0.000000
vn 0.000000 1.000000 0.000000
vn 0.000000 1.000000 0.000000
vn 0.000000 1.000000 0.000000
vn 0.000000 1.000000 0.000000
vn 0.000000 1.000000 0.000000
vn 0.000000 1.000000 0.000000
vn 0.000000 1.000000 0.000000
vn 0.000000 1.000000 0.000000
vn 0.000000 1.000000 0.000000
vn 0.000000 1.000000 0.000000
vn 0.000000 1.000000 0.000000
vn 0.000000 1.000000 0.000000
vn 0.000000 1.000000 0.000000
vn 0.000000 1.000000 0.000000
vn 0.000000 1.000000 0.000000
vn 0.000000 1.000000 0.000000
vn 0.000000 1.000000 0.000000
vn 0.000000 1.000000 0.000000
vn 0.000000 1.000000 0.000000
vn 0.000000 -1.000000 0.000000
vn 0.000000 -1.000000 0.000000
vn 0.000000 -1.000000 0.000000
vn 0.000000 -1.000000 0.000000
vn 0.000000 -1.000000 0.000000
vn 0.000000 -1.000000 0.000000
vn 0.000000 -1.000000 0.000000
vn 0.000000 -1.000000 0.000000
vn 0.000000 -0.039601 -0.999216
vn 0.000000 -0.039601 -0.999216
vn 0.000000 -0.039601 -0.999216
vn 0.000000 -0.039601 -0.999216
vn 0.000000 -1.000000 0.000000
vn 0.000000 -1.000000 0.000000
vn 0.000000 -1.000000 0.000000
vn 0.000000 -1.000000 0.000000
vn 0.999334 0.000000 -0.036501
vn 0.999334 0.000000 -0.036501
vn 0.999334 0.000000 -0.036501
vn 0.999334 0.000000 -0.036501
vn 1.000000 0.000000 0.000000
vn 1.000000 0.000000 0.000000
vn 1.000000 0.000000 0.000000
vn 1.000000 0.000000 0.000000
vn 0.000000 -0.039601 0.999216
vn 0.000000 -0.039601 0.999216
vn 0.000000 -0.039601 0.999216
vn 0.000000 -0.039601 0.999216
vn 0.000000 -1.000000 0.000000
vn 0.000000 -1.000000 0.000000
vn 0.000000 -1.000000 0.000000
vn 0.000000 -1.000000 0.000000
vn -0.999334 0.000000 0.036501
vn -0.999334 0.000000 0.036501
vn -0.999334 0.000000 0.036501
vn -0.999334 0.000000 0.036501
vn -1.000000 0.000000 0.000000
vn -1.000000 0.000000 0.000000
vn -1.000000 0.000000 0.000000
vn -1.000000 0.000000 0.000000
vn 0.000000 1.000000 0.000000
vn 0.000000 1.000000 0.000000
vn 0.000000 1.000000 0.000000
vn 0.000000 1.000000 0.000000
vn 0.000000 1.000000 0.000000
vn 0.000000 1.000000 0.000000
vn 0.000000 1.000000 0.000000
vn 0.000000 1.000000 0.000000
vn 0.000000 -1.000000 0.000000
vn 0.000000 -1.000000 0.000000
vn 0.000000 -1.000000 0.000000
vn 0.000000 -1.000000 0.000000
vn 0.000000 -1.000000 0.000000
vn 0.000000 -1.000000 0.000000
vn 0.000000 -1.000000 0.000000
vn 0.000000 -1.000000 0.000000
vn 0.000000 -1.000000 0.000000
vn 0.000000 -1.000000 0.000000
vn 0.000000 -1.000000 0.000000
vn 0.000000 -1.000000 0.000000
vn 0.000000 -1.000000 0.000000
vn 0.000000 -1.000000 0.000000
vn 0.000000 -1.000000 0.000000
vn 0.000000 -1.000000 0.000000
vn 0.000000 -0.039601 -0.999216
vn 0.000000 -0.039601 -0.999216
vn 0.000000 -0.039601 -0.999216
vn 0.000000 -0.039601 -0.999216
vn 0.000000 -0.039601 0.999216
vn 0.000000 -0.039601 0.999216
vn 0.000000 -0.039601 0.999216
vn 0.000000 -0.039601 0.999216
vn -0.998442 -0.055802 0.000000
vn -0.998442 -0.055802 0.000000
vn -0.998442 -0.055802 0.000000
vn -0.998442 -0.055802 0.000000
vn 0.998442 -0.055802 0.000000
vn 0.998442 -0.055802 0.000000
vn 0.998442 -0.055802 0.000000
vn 0.998442 -0.055802 0.000000
vn 0.000000 -0.039601 -0.999216
vn 0.000000 -0.039601 -0.999216
vn 0.000000 -0.039601 -0.999216
vn 0.000000 -0.039601 -0.999216
vn 0.998442 -0.055802 0.000000
vn 0.998442 -0.055802 0.000000
vn 0.998442 -0.055802 0.000000
vn 0.998442 -0.055802 0.000000
vn -0.998442 -0.055802 0.000000
vn -0.998442 -0.055802 0.000000
vn -0.998442 -0.055802 0.000000
vn -0.998442 -0.055802 0.000000
vn 0.000000 -0.039601 0.999216
vn 0.000000 -0.039601 0.999216
vn 0.000000 -0.039601 0.999216
vn 0.000000 -0.039601 0.999216
vn -0.998442 -0.055802 0.000000
vn -0.998442 -0.055802 0.000000
vn -0.998442 -0.055802 0.000000
vn -0.998442 -0.055802 0.000000
vn 0.000000 -0.039601 -0.999216
vn 0.000000 -0.039601 -0.999216
vn 0.000000 -0.039601 -0.999216
vn 0.000000 -0.039601 -0.999216
vn -0.998442 -0.055802 0.000000
vn -0.998442 -0.055802 0.000000
vn -0.998442 -0.055802 0.000000
vn -0.998442 -0.055802 0.000000
vn 0.000000 -0.039601 0.999216
vn 0.000000 -0.039601 0.999216
vn 0.000000 -0.039601 0.999216
vn 0.000000 -0.039601 0.999216
vn -0.829491 -0.558294 0.015900
vn -0.829491 -0.558294 0.015900
vn -0.829491 -0.558294 0.015900
vn -0.829491 -0.558294 0.015900
vn -0.011400 -0.557499 -0.830099
vn -0.011400 -0.557499 -0.830099
vn -0.011400 -0.557499 -0.830099
vn -0.011400 -0.557499 -0.830099
vn -0.011400 0.557499 0.830099
vn -0.011400 0.557499 0.830099
vn -0.011400 0.557499 0.830099
vn -0.011400 0.557499 0.830099
vn 0.829491 0.558294 0.015900
vn 0.829491 0.558294 0.015900
vn 0.829491 0.558294 0.015900
vn 0.829491 0.558294 0.015900
vn 0.011400 -0.557499 0.830099
vn 0.011400 -0.557499 0.830099
vn 0.011400 -0.557499 0.830099
vn 0.011400 -0.557499 0.830099
vn -0.829491 0.558294 -0.015900
vn -0.829491 0.558294 -0.015900
vn -0.829491 0.558294 -0.015900
vn -0.829491 0.558294 -0.015900
vn 0.011400 0.557499 -0.830099
vn 0.011400 0.557499 -0.830099
vn 0.011400 0.557499 -0.830099
vn 0.011400 0.557499 -0.830099
vn 0.829491 -0.558294 -0.015900
vn 0.829491 -0.558294 -0.015900
vn 0.829491 -0.558294 -0.015900
vn 0.829491 -0.558294 -0.015900
vn 0.011400 -0.557499 -0.830099
vn 0.011400 -0.557499 -0.830099
vn 0.011400 -0.557499 -0.830099
vn 0.011400 -0.557499 -0.830099
vn 0.000000 -0.616195 -0.787594
vn 0.000000 -0.616195 -0.787594
vn 0.000000 -0.616195 -0.787594
vn 0.000000 -0.616195 -0.787594
vn 0.011400 0.557499 0.830099
vn 0.011400 0.557499 0.830099
vn 0.011400 0.557499 0.830099
vn 0.011400 0.557499 0.830099
vn 0.000000 0.616195 0.787594
vn 0.000000 0.616195 0.787594
vn 0.000000 0.616195 0.787594
vn 0.000000 0.616195 0.787594
vn -0.011400 -0.557499 0.830099
vn -0.011400 -0.557499 0.830099
vn -0.011400 -0.557499 0.830099
vn -0.011400 -0.557499 0.830099
vn 0.000000 -0.616195 0.787594
vn 0.000000 -0.616195 0.787594
vn 0.000000 -0.616195 0.787594
vn 0.000000 -0.616195 0.787594
vn -0.011400 0.557499 -0.830099
vn -0.011400 0.557499 -0.830099
vn -0.011400 0.557499 -0.830099
vn -0.011400 0.557499 -0.830099
vn 0.000000 0.616195 -0.787594
vn 0.000000 0.616195 -0.787594
vn 0.000000 0.616195 -0.787594
vn 0.000000 0.616195 -0.787594
vn -0.829491 -0.558294 -0.015900
vn -0.829491 -0.558294 -0.015900
vn -0.829491 -0.558294 -0.015900
vn -0.829491 -0.558294 -0.015900
vn -0.787594 -0.616195 0.000000
vn -0.787594 -0.616195 0.000000
vn -0.787594 -0.616195 0.000000
vn -0.787594 -0.616195 0.000000
vn 0.829491 0.558294 -0.015900
vn 0.829491 0.558294 -0.015900
vn 0.829491 0.558294 -0.015900
vn 0.829491 0.558294 -0.015900
vn 0.787594 0.616195 0.000000
vn 0.787594 0.616195 0.000000
vn 0.787594 0.616195 0.000000
vn 0.787594 0.616195 0.000000
vn -0.829491 0.558294 0.015900
vn -0.829491 0.558294 0.015900
vn -0.829491 0.558294 0.015900
vn -0.829491 0.558294 0.015900
vn -0.787594 0.616195 0.000000
vn -0.787594 0.616195 0.000000
vn -0.787594 0.616195 0.000000
vn -0.787594 0.616195 0.000000
vn 0.829491 -0.558294 0.015900
vn 0.829491 -0.558294 0.015900
vn 0.829491 -0.558294 0.015900
vn 0.829491 -0.558294 0.015900
vn 0.787594 -0.616195 0.000000
vn 0.787594 -0.616195 0.000000
vn 0.787594 -0.616195 0.000000
vn 0.787594 -0.616195 0.000000
s off
g tableMesh
usemtl initialShadingGroup1
f 32/57/1 71/58/2 7/59/3 53/60/4
f 13/121/5 12/122/6 54/123/7 8/124/8
f 17/1/9 22/2/10 60/3/11 6/4/12
f 72/21/13 4/22/14 38/23/15 46/24/16
f 23/25/17 20/27/18 56/28/19 58/26/20
f 9/129/21 16/130/22 62/131/23 64/132/24
f 6/135/25 60/136/26 15/134/27 10/133/28
f 10/133/29 15/134/30 16/130/31 9/129/32
f 2/35/33 63/30/34 39/38/35 40/39/36
f 26/81/37 28/82/38 57/83/39 67/84/40
f 58/127/41 56/128/42 11/126/43 14/125/44
f 14/125/45 11/126/46 12/122/47 13/121/48
f 55/71/49 30/65/50 66/66/51 3/72/52
f 30/65/53 32/57/54 53/60/55 66/66/56
f 61/75/57 68/67/58 31/61/59 29/69/60
f 29/69/61 31/61/62 32/57/63 30/65/64
f 1/79/65 61/75/66 29/69/67 70/76/68
f 70/76/69 29/69/70 30/65/71 55/71/72
f 51/89/73 65/90/74 27/86/75 25/85/76
f 25/85/77 27/86/78 28/82/79 26/81/80
f 28/137/81 72/138/82 46/139/83 44/140/84
f 69/93/85 25/85/86 26/81/87 49/94/88
f 64/34/89 62/36/90 19/31/91 24/29/92
f 24/29/93 19/31/94 20/27/95 23/25/96
f 63/141/97 27/142/98 48/143/99 39/144/100
f 27/86/101 63/91/102 72/92/103 28/82/104
f 8/11/105 54/12/106 21/6/107 18/5/108
f 18/5/109 21/6/110 22/2/111 17/1/112
f 68/67/113 5/68/114 59/62/115 31/61/116
f 31/61/117 59/62/118 71/58/119 32/57/120
f 44/105/121 46/106/122 38/107/123 37/108/124
f 33/109/125 43/110/126 42/111/127 34/112/128
f 36/113/129 35/114/130 47/115/131 45/116/132
f 41/117/133 40/118/134 39/119/135 48/120/136
f 65/145/137 2/146/138 40/147/139 41/148/140
f 25/149/141 69/150/142 45/151/143 47/152/144
f 69/10/145 52/9/146 36/15/147 45/16/148
f 51/41/149 25/42/150 47/43/151 35/44/152
f 49/153/153 26/154/154 43/155/155 33/156/156
f 26/45/157 67/46/158 42/47/159 43/48/160
f 50/18/161 49/14/162 33/19/163 34/20/164
f 4/157/165 57/158/166 37/159/167 38/160/168
f 57/49/169 28/50/170 44/51/171 37/52/172
f 52/161/173 51/162/174 35/163/175 36/164/176
f 27/53/177 65/54/178 41/55/179 48/56/180
f 67/165/181 50/166/182 34/167/183 42/168/184
f 8/11/185 18/5/186 49/14/187 50/18/188
f 6/103/189 10/99/190 51/89/191 52/104/192
f 54/63/193 12/64/194 53/60/195 7/59/196
f 56/28/197 20/27/198 55/32/199 3/33/200
f 58/97/201 14/87/202 57/83/203 4/98/204
f 60/3/205 22/2/206 59/7/207 5/8/208
f 62/80/209 16/78/210 61/75/211 1/79/212
f 64/34/213 24/29/214 63/30/215 2/35/216
f 9/100/217 64/101/218 2/102/219 65/90/220
f 10/99/221 9/100/222 65/90/223 51/89/224
f 11/70/225 56/77/226 3/72/227 66/66/228
f 12/64/229 11/70/230 66/66/231 53/60/232
f 13/88/233 8/95/234 50/96/235 67/84/236
f 14/87/237 13/88/238 67/84/239 57/83/240
f 15/73/241 60/74/242 5/68/243 68/67/244
f 16/78/245 15/73/246 68/67/247 61/75/248
f 17/1/249 6/4/250 52/9/251 69/10/252
f 18/5/253 17/1/254 69/10/255 49/14/256
f 19/31/257 62/36/258 1/40/259 70/37/260
f 20/27/261 19/31/262 70/37/263 55/32/264
f 21/6/265 54/12/266 7/17/267 71/13/268
f 22/2/269 21/6/270 71/13/271 59/7/272
f 23/25/273 58/26/274 4/22/275 72/21/276
f 24/29/277 23/25/278 72/21/279 63/30/280
