# This file uses centimeters as units for non-parametric coordinates.

mtllib table.mtl
g default
v 1.219635 0.231208 -0.561806
v 1.219635 0.017644 -0.561806
v 1.219635 0.231208 0.561806
v 1.219635 0.017644 0.561806
v -1.925642 0.231208 -0.561806
v -1.944697 0.052086 -0.580860
v -1.925642 0.231208 0.561806
v -1.944697 0.052086 0.580860
v 0.941553 0.052086 -0.588752
v -1.647560 0.052086 -0.588752
v 0.941553 0.196766 0.588752
v -1.647560 0.196766 0.588752
v -1.647560 0.052086 0.588752
v 0.941553 0.052086 0.588752
v -1.647560 0.196766 -0.588752
v 0.941553 0.196766 -0.588752
v -1.952589 0.052086 -0.364871
v -1.952589 0.052086 0.364871
v 1.246582 0.196766 -0.364871
v 1.246582 0.196766 0.364871
v -1.952589 0.196766 0.364871
v -1.952589 0.196766 -0.364871
v 1.246582 0.052086 0.364871
v 1.246582 0.052086 -0.364871
v -1.647560 0.017644 -0.364871
v -1.647560 0.017644 0.364871
v 0.941553 0.017644 -0.364871
v 0.941553 0.017644 0.364871
v 0.941553 0.231208 -0.364871
v 0.941553 0.231208 0.364871
v -1.647560 0.231208 -0.364871
v -1.647560 0.231208 0.364871
v -1.882333 -0.757247 0.395542
v -1.882333 -0.757247 0.531135
v -1.690869 -0.757247 -0.531135
v -1.882333 -0.757247 -0.531135
v 0.984862 -0.757247 0.531135
v 1.176326 -0.757247 0.531135
v 1.176326 -0.757247 -0.395542
v 1.176326 -0.757247 -0.531135
v 0.984862 -0.757247 -0.531135
v -1.690869 -0.757247 0.531135
v -1.690869 -0.757247 0.395542
v 0.984862 -0.757247 0.395542
v -1.882333 -0.757247 -0.395542
v 1.176326 -0.757247 0.395542
v -1.690869 -0.757247 -0.395542
v 0.984862 -0.757247 -0.395542
v -1.925642 0.017644 0.364871
v -1.925642 0.017644 0.561806
v -1.647560 0.017644 -0.561806
v -1.925642 0.017644 -0.561806
v -1.647560 0.231208 0.561806
v -1.944697 0.196766 0.580860
v 1.219635 0.231208 0.364871
v 1.238690 0.196766 0.580860
v 0.941553 0.017644 0.561806
v 1.238690 0.052086 0.580860
v -1.925642 0.231208 -0.364871
v -1.944697 0.196766 -0.580860
v 0.941553 0.231208 -0.561806
v 1.238690 0.196766 -0.580860
v 1.219635 0.017644 -0.364871
v 1.238690 0.052086 -0.580860
v 0.941553 0.017644 -0.561806
v 0.941553 0.231208 0.561806
v -1.647560 0.017644 0.561806
v -1.647560 0.231208 -0.561806
v -1.925642 0.017644 -0.364871
v 1.219635 0.231208 -0.364871
v -1.925642 0.231208 0.364871
v 1.219635 0.017644 0.364871
vt 0.562652 0.819810
vt 0.562652 0.819810
vt 0.562652 0.819810
vt 0.562652 0.819810
vt 0.562652 0.819810
vt 0.562652 0.819810
vt 0.562652 0.819810
vt 0.562652 0.819810
vt 0.562652 0.819810
vt 0.562652 0.819810
vt 0.562652 0.819810
vt 0.562652 0.819810
vt 0.562652 0.819810
vt 0.562652 0.819810
vt 0.562652 0.819810
vt 0.562652 0.819810
vt 0.562652 0.819810
vt 0.562652 0.819810
vt 0.562652 0.819810
vt 0.562652 0.819810
vt 0.562652 0.819810
vt 0.562652 0.819810
vt 0.562652 0.819810
vt 0.562652 0.819810
vt 0.562652 0.819810
vt 0.562652 0.819810
vt 0.562652 0.819810
vt 0.562652 0.819810
vt 0.562652 0.819810
vt 0.562652 0.819810
vt 0.562652 0.819810
vt 0.562652 0.819810
vt 0.562652 0.819810
vt 0.562652 0.819810
vt 0.562652 0.819810
vt 0.562652 0.819810
vt 0.562652 0.819810
vt 0.562652 0.819810
vt 0.562652 0.819810
vt 0.562652 0.819810
vt 0.562652 0.819810
vt 0.562652 0.819810
vt 0.562652 0.819810
vt 0.562652 0.819810
vt 0.562652 0.819810
vt 0.562652 0.819810
vt 0.562652 0.819810
vt 0.562652 0.819810
vt 0.562652 0.819810
vt 0.562652 0.819810
vt 0.562652 0.819810
vt 0.562652 0.819810
vt 0.562652 0.819810
vt 0.562652 0.819810
vt 0.562652 0.819810
vt 0.562652 0.819810
vt 0.562652 0.819810
vt 0.562652 0.819810
vt 0.562652 0.819810
vt 0.562652 0.819810
vt 0.562652 0.819810
vt 0.562652 0.819810
vt 0.562652 0.819810
vt 0.562652 0.819810
vt 0.562652 0.819810
vt 0.562652 0.819810
vt 0.562652 0.819810
vt 0.562652 0.819810
vt 0.562652 0.819810
vt 0.562652 0.819810
vt 0.562652 0.819810
vt 0.562652 0.819810
vn 0.000000 1.000000 0.000000
vn 0.000000 1.000000 0.000000
vn 0.000000 1.000000 0.000000
vn 0.000000 1.000000 0.000000
vn -0.026601 0.000000 0.999646
vn -0.026601 0.000000 0.999646
vn -0.026601 0.000000 0.999646
vn -0.026601 0.000000 0.999646
vn -0.999334 0.000000 -0.036501
vn -0.999334 0.000000 -0.036501
vn -0.999334 0.000000 -0.036501
vn -0.999334 0.000000 -0.036501
vn 0.998442 -0.055802 0.000000
vn 0.998442 -0.055802 0.000000
vn 0.998442 -0.055802 0.000000
vn 0.998442 -0.055802 0.000000
vn 0.999334 0.000000 0.036501
vn 0.999334 0.000000 0.036501
vn 0.999334 0.000000 0.036501
vn 0.999334 0.000000 0.036501
vn 0.026601 0.000000 -0.999646
vn 0.026601 0.000000 -0.999646
vn 0.026601 0.000000 -0.999646
vn 0.026601 0.000000 -0.999646
vn -0.026601 0.000000 -0.999646
vn -0.026601 0.000000 -0.999646
vn -0.026601 0.000000 -0.999646
vn -0.026601 0.000000 -0.999646
vn 0.000000 0.000000 -1.000000
vn 0.000000 0.000000 -1.000000
vn 0.000000 0.000000 -1.000000
vn 0.000000 0.000000 -1.000000
vn 0.998442 -0.055802 0.000000
vn 0.998442 -0.055802 0.000000
vn 0.998442 -0.055802 0.000000
vn 0.998442 -0.055802 0.000000
vn 0.000000 -1.000000 0.000000
vn 0.000000 -1.000000 0.000000
vn 0.000000 -1.000000 0.000000
vn 0.000000 -1.000000 0.000000
vn 0.026601 0.000000 0.999646
vn 0.026601 0.000000 0.999646
vn 0.026601 0.000000 0.999646
vn 0.026601 0.000000 0.999646
vn 0.000000 0.000000 1.000000
vn 0.000000 0.000000 1.000000
vn 0.000000 0.000000 1.000000
vn 0.000000 0.000000 1.000000
vn 0.000000 1.000000 0.000000
vn 0.000000 1.000000 0.000000
vn 0.000000 1.000000 0.000000
vn 0.000000 1.000000 0.000000
vn 0.000000 1.000000 0.000000
vn 0.000000 1.000000 0.000000
vn 0.000000 1.000000 0.000000
vn 0.000000 1.000000 0.000000
vn 0.000000 1.000000 0.000000
vn 0.000000 1.000000 0.000000
vn 0.000000 1.000000 0.000000
vn 0.000000 1.000000 0.000000
vn 0.000000 1.000000 0.000000
vn 0.000000 1.000000 0.000000
vn 0.000000 1.000000 0.000000
vn 0.000000 1.000000 0.000000
vn 0.000000 1.000000 0.000000
vn 0.000000 1.000000 0.000000
vn 0.000000 1.000000 0.000000
vn 0.000000 1.000000 0.000000
vn 0.000000 1.000000 0.000000
vn 0.000000 1.000000 0.000000
vn 0.000000 1.000000 0.000000
vn 0.000000 1.000000 0.000000
vn 0.000000 -1.000000 0.000000
vn 0.000000 -1.000000 0.000000
vn 0.000000 -1.000000 0.000000
vn 0.000000 -1.000000 0.000000
vn 0.000000 -1.000000 0.000000
vn 0.000000 -1.000000 0.000000
vn 0.000000 -1.000000 0.000000
vn 0.000000 -1.000000 0.000000
vn 0.000000 -0.039601 -0.999216
vn 0.000000 -0.039601 -0.999216
vn 0.000000 -0.039601 -0.999216
vn 0.000000 -0.039601 -0.999216
vn 0.000000 -1.000000 0.000000
vn 0.000000 -1.000000 0.000000
vn 0.000000 -1.000000 0.000000
vn 0.000000 -1.000000 0.000000
vn 0.999334 0.000000 -0.036501
vn 0.999334 0.000000 -0.036501
vn 0.999334 0.000000 -0.036501
vn 0.999334 0.000000 -0.036501
vn 1.000000 0.000000 0.000000
vn 1.000000 0.000000 0.000000
vn 1.000000 0.000000 0.000000
vn 1.000000 0.000000 0.000000
vn 0.000000 -0.039601 0.999216
vn 0.000000 -0.039601 0.999216
vn 0.000000 -0.039601 0.999216
vn 0.000000 -0.039601 0.999216
vn 0.000000 -1.000000 0.000000
vn 0.000000 -1.000000 0.000000
vn 0.000000 -1.000000 0.000000
vn 0.000000 -1.000000 0.000000
vn -0.999334 0.000000 0.036501
vn -0.999334 0.000000 0.036501
vn -0.999334 0.000000 0.036501
vn -0.999334 0.000000 0.036501
vn -1.000000 0.000000 0.000000
vn -1.000000 0.000000 0.000000
vn -1.000000 0.000000 0.000000
vn -1.000000 0.000000 0.000000
vn 0.000000 1.000000 0.000000
vn 0.000000 1.000000 0.000000
vn 0.000000 1.000000 0.000000
vn 0.000000 1.000000 0.000000
vn 0.000000 1.000000 0.000000
vn 0.000000 1.000000 0.000000
vn 0.000000 1.000000 0.000000
vn 0.000000 1.000000 0.000000
vn 0.000000 -1.000000 0.000000
vn 0.000000 -1.000000 0.000000
vn 0.000000 -1.000000 0.000000
vn 0.000000 -1.000000 0.000000
vn 0.000000 -1.000000 0.000000
vn 0.000000 -1.000000 0.000000
vn 0.000000 -1.000000 0.000000
vn 0.000000 -1.000000 0.000000
vn 0.000000 -1.000000 0.000000
vn 0.000000 -1.000000 0.000000
vn 0.000000 -1.000000 0.000000
vn 0.000000 -1.000000 0.000000
vn 0.000000 -1.000000 0.000000
vn 0.000000 -1.000000 0.000000
vn 0.000000 -1.000000 0.000000
vn 0.000000 -1.000000 0.000000
vn 0.000000 -0.039601 -0.999216
vn 0.000000 -0.039601 -0.999216
vn 0.000000 -0.039601 -0.999216
vn 0.000000 -0.039601 -0.999216
vn 0.000000 -0.039601 0.999216
vn 0.000000 -0.039601 0.999216
vn 0.000000 -0.039601 0.999216
vn 0.000000 -0.039601 0.999216
vn -0.998442 -0.055802 0.000000
vn -0.998442 -0.055802 0.000000
vn -0.998442 -0.055802 0.000000
vn -0.998442 -0.055802 0.000000
vn 0.998442 -0.055802 0.000000
vn 0.998442 -0.055802 0.000000
vn 0.998442 -0.055802 0.000000
vn 0.998442 -0.055802 0.000000
vn 0.000000 -0.039601 -0.999216
vn 0.000000 -0.039601 -0.999216
vn 0.000000 -0.039601 -0.999216
vn 0.000000 -0.039601 -0.999216
vn 0.998442 -0.055802 0.000000
vn 0.998442 -0.055802 0.000000
vn 0.998442 -0.055802 0.000000
vn 0.998442 -0.055802 0.000000
vn -0.998442 -0.055802 0.000000
vn -0.998442 -0.055802 0.000000
vn -0.998442 -0.055802 0.000000
vn -0.998442 -0.055802 0.000000
vn 0.000000 -0.039601 0.999216
vn 0.000000 -0.039601 0.999216
vn 0.000000 -0.039601 0.999216
vn 0.000000 -0.039601 0.999216
vn -0.998442 -0.055802 0.000000
vn -0.998442 -0.055802 0.000000
vn -0.998442 -0.055802 0.000000
vn -0.998442 -0.055802 0.000000
vn 0.000000 -0.039601 -0.999216
vn 0.000000 -0.039601 -0.999216
vn 0.000000 -0.039601 -0.999216
vn 0.000000 -0.039601 -0.999216
vn -0.998442 -0.055802 0.000000
vn -0.998442 -0.055802 0.000000
vn -0.998442 -0.055802 0.000000
vn -0.998442 -0.055802 0.000000
vn 0.000000 -0.039601 0.999216
vn 0.000000 -0.039601 0.999216
vn 0.000000 -0.039601 0.999216
vn 0.000000 -0.039601 0.999216
vn -0.829491 -0.558294 0.015900
vn -0.829491 -0.558294 0.015900
vn -0.829491 -0.558294 0.015900
vn -0.829491 -0.558294 0.015900
vn -0.011400 -0.557499 -0.830099
vn -0.011400 -0.557499 -0.830099
vn -0.011400 -0.557499 -0.830099
vn -0.011400 -0.557499 -0.830099
vn -0.011400 0.557499 0.830099
vn -0.011400 0.557499 0.830099
vn -0.011400 0.557499 0.830099
vn -0.011400 0.557499 0.830099
vn 0.829491 0.558294 0.015900
vn 0.829491 0.558294 0.015900
vn 0.829491 0.558294 0.015900
vn 0.829491 0.558294 0.015900
vn 0.011400 -0.557499 0.830099
vn 0.011400 -0.557499 0.830099
vn 0.011400 -0.557499 0.830099
vn 0.011400 -0.557499 0.830099
vn -0.829491 0.558294 -0.015900
vn -0.829491 0.558294 -0.015900
vn -0.829491 0.558294 -0.015900
vn -0.829491 0.558294 -0.015900
vn 0.011400 0.557499 -0.830099
vn 0.011400 0.557499 -0.830099
vn 0.011400 0.557499 -0.830099
vn 0.011400 0.557499 -0.830099
vn 0.829491 -0.558294 -0.015900
vn 0.829491 -0.558294 -0.015900
vn 0.829491 -0.558294 -0.015900
vn 0.829491 -0.558294 -0.015900
vn 0.011400 -0.557499 -0.830099
vn 0.011400 -0.557499 -0.830099
vn 0.011400 -0.557499 -0.830099
vn 0.011400 -0.557499 -0.830099
vn 0.000000 -0.616195 -0.787594
vn 0.000000 -0.616195 -0.787594
vn 0.000000 -0.616195 -0.787594
vn 0.000000 -0.616195 -0.787594
vn 0.011400 0.557499 0.830099
vn 0.011400 0.557499 0.830099
vn 0.011400 0.557499 0.830099
vn 0.011400 0.557499 0.830099
vn 0.000000 0.616195 0.787594
vn 0.000000 0.616195 0.787594
vn 0.000000 0.616195 0.787594
vn 0.000000 0.616195 0.787594
vn -0.011400 -0.557499 0.830099
vn -0.011400 -0.557499 0.830099
vn -0.011400 -0.557499 0.830099
vn -0.011400 -0.557499 0.830099
vn 0.000000 -0.616195 0.787594
vn 0.000000 -0.616195 0.787594
vn 0.000000 -0.616195 0.787594
vn 0.000000 -0.616195 0.787594
vn -0.011400 0.557499 -0.830099
vn -0.011400 0.557499 -0.830099
vn -0.011400 0.557499 -0.830099
vn -0.011400 0.557499 -0.830099
vn 0.000000 0.616195 -0.787594
vn 0.000000 0.616195 -0.787594
vn 0.000000 0.616195 -0.787594
vn 0.000000 0.616195 -0.787594
vn -0.829491 -0.558294 -0.015900
vn -0.829491 -0.558294 -0.015900
vn -0.829491 -0.558294 -0.015900
vn -0.829491 -0.558294 -0.015900
vn -0.787594 -0.616195 0.000000
vn -0.787594 -0.616195 0.000000
vn -0.787594 -0.616195 0.000000
vn -0.787594 -0.616195 0.000000
vn 0.829491 0.558294 -0.015900
vn 0.829491 0.558294 -0.015900
vn 0.829491 0.558294 -0.015900
vn 0.829491 0.558294 -0.015900
vn 0.787594 0.616195 0.000000
vn 0.787594 0.616195 0.000000
vn 0.787594 0.616195 0.000000
vn 0.787594 0.616195 0.000000
vn -0.829491 0.558294 0.015900
vn -0.829491 0.558294 0.015900
vn -0.829491 0.558294 0.015900
vn -0.829491 0.558294 0.015900
vn -0.787594 0.616195 0.000000
vn -0.787594 0.616195 0.000000
vn -0.787594 0.616195 0.000000
vn -0.787594 0.616195 0.000000
vn 0.829491 -0.558294 0.015900
vn 0.829491 -0.558294 0.015900
vn 0.829491 -0.558294 0.015900
vn 0.829491 -0.558294 0.015900
vn 0.787594 -0.616195 0.000000
vn 0.787594 -0.616195 0.000000
vn 0.787594 -0.616195 0.000000
vn 0.787594 -0.616195 0.000000
s off
g table Mesh
usemtl initialShadingGroup
f 32/1/1 71/2/2 7/3/3 53/4/4
f 13/5/5 12/6/6 54/7/7 8/8/8
f 17/9/9 22/10/10 60/11/11 6/12/12
f 72/13/13 4/14/14 38/15/15 46/16/16
f 23/17/17 20/18/18 56/19/19 58/20/20
f 9/21/21 16/22/22 62/23/23 64/24/24
f 6/12/25 60/11/26 15/25/27 10/26/28
f 10/26/29 15/25/30 16/22/31 9/21/32
f 2/27/33 63/28/34 39/29/35 40/30/36
f 26/31/37 28/32/38 57/33/39 67/34/40
f 58/20/41 56/19/42 11/35/43 14/36/44
f 14/36/45 11/35/46 12/6/47 13/5/48
f 55/37/49 30/38/50 66/39/51 3/40/52
f 30/38/53 32/1/54 53/4/55 66/39/56
f 61/41/57 68/42/58 31/43/59 29/44/60
f 29/44/61 31/43/62 32/1/63 30/38/64
f 1/45/65 61/41/66 29/44/67 70/46/68
f 70/46/69 29/44/70 30/38/71 55/37/72
f 51/47/73 65/48/74 27/49/75 25/50/76
f 25/50/77 27/49/78 28/32/79 26/31/80
f 28/32/81 72/13/82 46/16/83 44/51/84
f 69/52/85 25/50/86 26/31/87 49/53/88
f 64/24/89 62/23/90 19/54/91 24/55/92
f 24/55/93 19/54/94 20/18/95 23/17/96
f 63/28/97 27/49/98 48/56/99 39/29/100
f 27/49/101 63/28/102 72/13/103 28/32/104
f 8/8/105 54/7/106 21/57/107 18/58/108
f 18/58/109 21/57/110 22/10/111 17/9/112
f 68/42/113 5/59/114 59/60/115 31/43/116
f 31/43/117 59/60/118 71/2/119 32/1/120
f 44/51/121 46/16/122 38/15/123 37/61/124
f 33/62/125 43/63/126 42/64/127 34/65/128
f 36/66/129 35/67/130 47/68/131 45/69/132
f 41/70/133 40/30/134 39/29/135 48/56/136
f 65/48/137 2/27/138 40/30/139 41/70/140
f 25/50/141 69/52/142 45/69/143 47/68/144
f 69/52/145 52/71/146 36/66/147 45/69/148
f 51/47/149 25/50/150 47/68/151 35/67/152
f 49/53/153 26/31/154 43/63/155 33/62/156
f 26/31/157 67/34/158 42/64/159 43/63/160
f 50/72/161 49/53/162 33/62/163 34/65/164
f 4/14/165 57/33/166 37/61/167 38/15/168
f 57/33/169 28/32/170 44/51/171 37/61/172
f 52/71/173 51/47/174 35/67/175 36/66/176
f 27/49/177 65/48/178 41/70/179 48/56/180
f 67/34/181 50/72/182 34/65/183 42/64/184
f 8/8/185 18/58/186 49/53/187 50/72/188
f 6/12/189 10/26/190 51/47/191 52/71/192
f 54/7/193 12/6/194 53/4/195 7/3/196
f 56/19/197 20/18/198 55/37/199 3/40/200
f 58/20/201 14/36/202 57/33/203 4/14/204
f 60/11/205 22/10/206 59/60/207 5/59/208
f 62/23/209 16/22/210 61/41/211 1/45/212
f 64/24/213 24/55/214 63/28/215 2/27/216
f 9/21/217 64/24/218 2/27/219 65/48/220
f 10/26/221 9/21/222 65/48/223 51/47/224
f 11/35/225 56/19/226 3/40/227 66/39/228
f 12/6/229 11/35/230 66/39/231 53/4/232
f 13/5/233 8/8/234 50/72/235 67/34/236
f 14/36/237 13/5/238 67/34/239 57/33/240
f 15/25/241 60/11/242 5/59/243 68/42/244
f 16/22/245 15/25/246 68/42/247 61/41/248
f 17/9/249 6/12/250 52/71/251 69/52/252
f 18/58/253 17/9/254 69/52/255 49/53/256
f 19/54/257 62/23/258 1/45/259 70/46/260
f 20/18/261 19/54/262 70/46/263 55/37/264
f 21/57/265 54/7/266 7/3/267 71/2/268
f 22/10/269 21/57/270 71/2/271 59/60/272
f 23/17/273 58/20/274 4/14/275 72/13/276
f 24/55/277 23/17/278 72/13/279 63/28/280
